<svg xmlns="http://www.w3.org/2000/svg" width="21.818" height="24" viewBox="0 0 21.818 24">
  <path id="icons8_account" d="M16.364,3.636a6.545,6.545,0,1,1-6.545,6.545A6.558,6.558,0,0,1,16.364,3.636Zm0,13.091A10.93,10.93,0,0,1,27.273,27.636H25.091a8.68,8.68,0,0,0-4.082-7.364l-4.645,5.182-4.645-5.182a8.68,8.68,0,0,0-4.082,7.364H5.455A10.93,10.93,0,0,1,16.364,16.727Zm0-10.909a4.364,4.364,0,1,0,4.364,4.364A4.35,4.35,0,0,0,16.364,5.818Zm0,13.091a8.507,8.507,0,0,0-2.557.426l2.557,2.847,2.557-2.847A8.507,8.507,0,0,0,16.364,18.909Z" transform="translate(-5.455 -3.636)" fill="#5b5b5b"/>
</svg>
