<svg xmlns="http://www.w3.org/2000/svg" width="24" height="19.637" viewBox="0 0 24 19.637">
  <path id="icons8_shopping_cart_1" d="M1.909,3.273a.818.818,0,1,0,0,1.636h1.5a.811.811,0,0,1,.8.665l.163.852,1.759,9.238a3.555,3.555,0,0,0,3.484,2.882H19.834a3.554,3.554,0,0,0,3.484-2.882l1.759-9.238a.818.818,0,0,0-.8-.972H5.858l-.035-.186a2.463,2.463,0,0,0-2.411-2ZM6.171,7.091H23.284L21.71,15.358a1.9,1.9,0,0,1-1.876,1.551H9.621a1.9,1.9,0,0,1-1.876-1.551h0Zm4.739,12.546a1.636,1.636,0,1,0,1.636,1.636A1.636,1.636,0,0,0,10.909,19.637Zm7.636,0a1.636,1.636,0,1,0,1.636,1.636A1.636,1.636,0,0,0,18.546,19.637Z" transform="translate(-1.091 -3.273)" fill="#5b5b5b"/>
</svg>
