<svg xmlns="http://www.w3.org/2000/svg" width="24" height="20.729" viewBox="0 0 24 20.729">
  <path id="icons8_Favorite" d="M24.611,7.279A7.032,7.032,0,0,0,18.323,3.33a7.764,7.764,0,0,0-1.617.178,7.483,7.483,0,0,0-1.531.5,8.491,8.491,0,0,0-1.391.778c-.166.116-.325.241-.485.367-.043-.034-.085-.071-.128-.1a8.953,8.953,0,0,0-.957-.633,8.069,8.069,0,0,0-2.144-.864,7.17,7.17,0,0,0-4.615.392A7.014,7.014,0,0,0,2.081,7.118,6.766,6.766,0,0,0,1.462,11.7,10.832,10.832,0,0,0,3.424,15.66a23.8,23.8,0,0,0,2.838,3.119,43.711,43.711,0,0,0,6.6,5.011l.43.269.435-.269h0a45.121,45.121,0,0,0,5.532-4.045,23.337,23.337,0,0,0,4.662-5.179,8.934,8.934,0,0,0,1.329-3.481A6.854,6.854,0,0,0,24.611,7.279Zm-1.238,3.576a7.1,7.1,0,0,1-1.029,2.753,21.634,21.634,0,0,1-4.234,4.813A43.547,43.547,0,0,1,13.3,22.08,41.741,41.741,0,0,1,7.477,17.5,22.047,22.047,0,0,1,4.89,14.585a9.059,9.059,0,0,1-1.6-3.279,4.88,4.88,0,0,1,.493-3.292A5.066,5.066,0,0,1,6.246,5.758a5.166,5.166,0,0,1,3.336-.234,6.014,6.014,0,0,1,1.6.671,6.861,6.861,0,0,1,.729.5c.115.091.228.184.335.28s.225.21.277.269h0l.827.772.721-.772a5.193,5.193,0,0,1,.405-.378c.154-.13.317-.253.483-.371a6.467,6.467,0,0,1,1.057-.6,5.417,5.417,0,0,1,1.133-.383,5.728,5.728,0,0,1,1.173-.14,5.042,5.042,0,0,1,4.545,2.772A4.956,4.956,0,0,1,23.372,10.855Z" transform="translate(-1.303 -3.33)" fill="#5b5b5b"/>
</svg>
