<svg xmlns="http://www.w3.org/2000/svg" width="24.071" height="22.033" viewBox="0 0 24.071 22.033">
  <g id="Layer_1" data-name="Layer 1" transform="translate(0.032 0.031)">
    <g id="Group_2700" data-name="Group 2700">
      <path id="Path_102" data-name="Path 102" d="M6.967,3.992h-5.9A.968.968,0,0,1,.032,2.746.858.858,0,0,1,.7,2.035a2.009,2.009,0,0,1,.486-.051q5.816,0,11.632,0c.082,0,.164,0,.246.006A.967.967,0,0,1,14,3.025a.951.951,0,0,1-1.026.966Q9.97,3.994,6.967,3.992Z" stroke="#707070" stroke-width="0.063"/>
      <path id="Path_103" data-name="Path 103" d="M7,17.98q2.977,0,5.952,0a.969.969,0,0,1,1.006,1.27.911.911,0,0,1-.849.726,2.873,2.873,0,0,1-.381.013H1.262a2.912,2.912,0,0,1-.354-.01.961.961,0,0,1-.9-1.06.936.936,0,0,1,1.02-.94q2.99,0,5.98,0Z" stroke="#707070" stroke-width="0.063"/>
      <path id="Path_104" data-name="Path 104" d="M16.993,11.985q-2.962,0-5.924,0A.945.945,0,0,1,10,11.128a.956.956,0,0,1,.9-1.134c.073-.006.146-.006.218-.006q5.87,0,11.739,0a1.789,1.789,0,0,1,.46.043.944.944,0,0,1,.671,1.03.916.916,0,0,1-.846.91c-.126.013-.254.013-.381.013Z" stroke="#707070" stroke-width="0.063"/>
      <path id="Path_105" data-name="Path 105" d="M17.993,1.982h.356c1.519,0,3.038,0,4.556,0a.982.982,0,0,1,1.05,1.246A.91.91,0,0,1,23,3.991q-2.333,0-4.666,0h-.341c0,.325,0,.64,0,.953a.983.983,0,0,1-1.3,1.013.9.9,0,0,1-.71-.888Q15.974,3,15.989.923A.916.916,0,0,1,16.964,0a.937.937,0,0,1,1.027.93c.018.335,0,.671,0,1.052Z" stroke="#707070" stroke-width="0.063"/>
      <path id="Path_106" data-name="Path 106" d="M18,19.99c0,.346,0,.653,0,.961a.949.949,0,0,1-1.023,1.02.938.938,0,0,1-.987-1.025q0-1.965,0-3.929a1.006,1.006,0,1,1,2.01,0c0,.308,0,.616,0,.962H18.3c1.555,0,3.11,0,4.666,0a.994.994,0,0,1,.916,1.471,1.012,1.012,0,0,1-1.022.538H18Z" stroke="#707070" stroke-width="0.063"/>
      <path id="Path_107" data-name="Path 107" d="M5.992,11.985H5.633c-1.528,0-3.056.005-4.584,0A.966.966,0,0,1,.03,10.744.892.892,0,0,1,.826,10a3.523,3.523,0,0,1,.381-.015q2.21,0,4.42,0h.364c0-.337,0-.651,0-.965a.992.992,0,0,1,1.36-.983A.909.909,0,0,1,8,8.922c.008,1.374.011,2.747,0,4.121a.935.935,0,0,1-.988.945A.949.949,0,0,1,6,13.038c-.015-.335,0-.671,0-1.052Z" stroke="#707070" stroke-width="0.063"/>
    </g>
  </g>
</svg>
