<svg xmlns="http://www.w3.org/2000/svg" width="22.153" height="24" viewBox="0 0 22.153 24">
  <path id="icons8_home" d="M14.739,2.461a.923.923,0,0,0-.541.2L5.452,9.55a4.618,4.618,0,0,0-1.76,3.625V24.923a1.552,1.552,0,0,0,1.538,1.538h6.154a1.552,1.552,0,0,0,1.538-1.538V18.769a.294.294,0,0,1,.308-.308h3.077a.294.294,0,0,1,.308.308v6.154a1.552,1.552,0,0,0,1.538,1.538h6.154a1.552,1.552,0,0,0,1.538-1.538V13.175a4.618,4.618,0,0,0-1.76-3.625L15.34,2.66a.923.923,0,0,0-.6-.2Zm.03,2.1L22.944,11A2.766,2.766,0,0,1,24,13.175v11.44H18.461V18.769a2.168,2.168,0,0,0-2.154-2.154H13.231a2.168,2.168,0,0,0-2.154,2.154v5.846H5.538V13.175A2.766,2.766,0,0,1,6.594,11Z" transform="translate(-3.692 -2.461)" fill="#f70"/>
</svg>
