<svg id="Group_2553" data-name="Group 2553" xmlns="http://www.w3.org/2000/svg" xmlns:xlink="http://www.w3.org/1999/xlink" width="12.076" height="19.471" viewBox="0 0 12.076 19.471">
  <defs>
    <clipPath id="clip-path">
      <rect id="Rectangle_126" data-name="Rectangle 126" width="12.076" height="19.471" fill="none"/>
    </clipPath>
  </defs>
  <g id="Group_2552" data-name="Group 2552" clip-path="url(#clip-path)">
    <path id="Path_89" data-name="Path 89" d="M12.075,46.174H9.94A3.9,3.9,0,1,1,5.2,42.363a1.068,1.068,0,1,0-.464-2.085A6.048,6.048,0,0,0,0,46.174a5.2,5.2,0,0,0,.214,1.6c.966,3.483,4.008,5.759,5.824,6.88,1.357-.743,4.9-2.93,5.824-6.88a8.458,8.458,0,0,0,.214-1.6" transform="translate(0.001 -35.179)" fill="#f70"/>
    <path id="Path_90" data-name="Path 90" d="M70.542,56.886l2.188-.04c-.016-.123-.033-.246-.056-.366a5.993,5.993,0,0,0-1.647-3.108l-1.568,1.507a3.865,3.865,0,0,1,1.083,2.008" transform="translate(-60.704 -46.644)" fill="#f70"/>
    <path id="Path_91" data-name="Path 91" d="M31.559,12.822a2.066,2.066,0,1,0,4.032,0Z" transform="translate(-27.536 -11.206)" fill="#f70"/>
    <path id="Path_92" data-name="Path 92" d="M37.67.984H36.362l.005.01a2.063,2.063,0,0,0-3.681.307H37.67a.158.158,0,1,0,0-.316" transform="translate(-28.566)" fill="#f70"/>
  </g>
</svg>
