<svg xmlns="http://www.w3.org/2000/svg" xmlns:xlink="http://www.w3.org/1999/xlink" width="18" height="18" viewBox="0 0 18 18">
  <defs>
    <clipPath id="clip-path">
      <rect id="Rectangle_194" data-name="Rectangle 194" width="18" height="18" transform="translate(34 884)" fill="#f70" stroke="#707070" stroke-width="1"/>
    </clipPath>
  </defs>
  <g id="Mask_Group_103" data-name="Mask Group 103" transform="translate(-34 -884)" clip-path="url(#clip-path)">
    <path id="icons8_Average_Price" d="M9.45,3.15A7.65,7.65,0,1,0,10.8,18.323a7.65,7.65,0,1,0,0-15.047A7.641,7.641,0,0,0,9.45,3.15Zm4.832,1.726a6.294,6.294,0,0,1,0,11.848,7.636,7.636,0,0,0,0-11.848ZM9.225,6.75a.675.675,0,0,1,.675.675V7.7a1.791,1.791,0,0,1,1.314,1.2.675.675,0,1,1-1.287.41A.468.468,0,0,0,9.475,9L9.151,9a.563.563,0,1,0,.01,1.123h.578A1.91,1.91,0,0,1,9.9,13.944v.231a.675.675,0,1,1-1.35,0V13.9A1.792,1.792,0,0,1,7.233,12.72a.675.675,0,0,1,1.283-.42.462.462,0,0,0,.451.3H9.75a.563.563,0,1,0-.011-1.122H9.161A1.906,1.906,0,0,1,8.55,7.75V7.425A.675.675,0,0,1,9.225,6.75Z" transform="translate(32.2 882.2)" fill="#f70"/>
  </g>
</svg>
