<svg width="386" height="337" viewBox="0 0 386 337" fill="none" xmlns="http://www.w3.org/2000/svg">
<g clip-path="url(#clip0_222_152)">
<path opacity="0.53" d="M17.27 132.89C16.49 132.89 15.86 133.57 15.86 134.42V137.45C15.03 137.7 14.23 138.03 13.46 138.44L11.32 136.3C10.72 135.7 9.79999 135.67 9.24999 136.22L5.87999 139.59C5.32999 140.14 5.36999 141.07 5.95999 141.66L8.09999 143.8C7.68999 144.57 7.35999 145.37 7.10999 146.2H4.07999C3.22999 146.2 2.54999 146.83 2.54999 147.61V152.37C2.54999 153.15 3.22999 153.78 4.07999 153.78H7.10999C7.35999 154.61 7.68999 155.41 8.09999 156.18L5.95999 158.32C5.35999 158.92 5.32999 159.84 5.87999 160.39L9.24999 163.76C9.79999 164.31 10.73 164.27 11.32 163.68L13.46 161.54C14.23 161.95 15.03 162.28 15.86 162.53V165.56C15.86 166.41 16.49 167.09 17.27 167.09H22.03C22.81 167.09 23.44 166.41 23.44 165.56V162.53C24.27 162.28 25.07 161.95 25.84 161.54L27.98 163.68C28.58 164.28 29.5 164.31 30.05 163.76L33.42 160.39C33.97 159.84 33.93 158.91 33.34 158.32L31.2 156.18C31.61 155.41 31.94 154.61 32.19 153.78H35.22C36.07 153.78 36.75 153.15 36.75 152.37V147.61C36.75 146.83 36.07 146.2 35.22 146.2H32.19C31.94 145.37 31.61 144.57 31.2 143.8L33.34 141.66C33.94 141.06 33.97 140.14 33.42 139.59L30.05 136.22C29.5 135.67 28.57 135.71 27.98 136.3L25.84 138.44C25.07 138.03 24.27 137.7 23.44 137.45V134.42C23.44 133.57 22.81 132.89 22.03 132.89H17.27ZM19.65 143.91C23.01 143.91 25.73 146.63 25.73 149.99C25.73 153.35 23.01 156.07 19.65 156.07C16.29 156.07 13.57 153.35 13.57 149.99C13.57 146.63 16.29 143.91 19.65 143.91Z" fill="#222221"/>
<path d="M14.71 132.89C13.93 132.89 13.3 133.57 13.3 134.42V137.45C12.47 137.7 11.67 138.03 10.9 138.44L8.76 136.3C8.16 135.7 7.24 135.67 6.69 136.22L3.32 139.59C2.77 140.14 2.81 141.07 3.4 141.66L5.54 143.8C5.13 144.57 4.8 145.37 4.55 146.2H1.53C0.68 146.2 0 146.83 0 147.61V152.37C0 153.15 0.68 153.78 1.53 153.78H4.56C4.81 154.61 5.14 155.41 5.55 156.18L3.41 158.32C2.81 158.92 2.78 159.84 3.33 160.39L6.7 163.76C7.25 164.31 8.18 164.27 8.77 163.68L10.91 161.54C11.68 161.95 12.48 162.28 13.31 162.53V165.56C13.31 166.41 13.94 167.09 14.72 167.09H19.48C20.26 167.09 20.89 166.41 20.89 165.56V162.53C21.72 162.28 22.52 161.95 23.29 161.54L25.43 163.68C26.03 164.28 26.95 164.31 27.5 163.76L30.87 160.39C31.42 159.84 31.38 158.91 30.79 158.32L28.65 156.18C29.06 155.41 29.39 154.61 29.64 153.78H32.67C33.52 153.78 34.2 153.15 34.2 152.37V147.61C34.2 146.83 33.52 146.2 32.67 146.2H29.64C29.39 145.37 29.06 144.57 28.65 143.8L30.79 141.66C31.39 141.06 31.42 140.14 30.87 139.59L27.5 136.22C26.95 135.67 26.02 135.71 25.43 136.3L23.29 138.44C22.52 138.03 21.72 137.7 20.89 137.45V134.42C20.89 133.57 20.26 132.89 19.48 132.89H14.72H14.71ZM18.09 143.91C21.45 143.91 24.17 146.63 24.17 149.99C24.17 153.35 21.45 156.07 18.09 156.07C14.73 156.07 12.01 153.35 12.01 149.99C12.01 146.63 14.73 143.91 18.09 143.91Z" fill="#222221"/>
<path d="M103.73 57.71H98.96L98.28 37.64H104.41L103.73 57.71ZM101.34 60.85C102.31 60.85 103.08 61.14 103.67 61.71C104.27 62.28 104.57 63.01 104.57 63.9C104.57 64.79 104.27 65.5 103.67 66.07C103.09 66.64 102.31 66.93 101.34 66.93C100.37 66.93 99.61 66.64 99.01 66.07C98.43 65.5 98.13 64.78 98.13 63.9C98.13 63.02 98.42 62.3 99.01 61.73C99.61 61.15 100.38 60.85 101.34 60.85Z" fill="#222221"/>
<path d="M101.35 20.4399C99.25 20.4399 97.3 21.5599 96.25 23.3799L83.18 46.0199L70.41 68.1399C68.17 72.0199 71.03 76.9699 75.51 76.9699H127.19C131.67 76.9699 134.53 72.0199 132.29 68.1399L119.37 45.7599L106.45 23.3799C105.4 21.5599 103.45 20.4399 101.35 20.4399ZM101.35 22.6699C102.66 22.6699 103.86 23.3699 104.52 24.4999L117.44 46.8799L130.36 69.2599C131.79 71.7499 130.06 74.7499 127.19 74.7499H75.51C72.64 74.7499 70.91 71.7499 72.34 69.2599L85.41 46.6199L98.18 24.4999C98.83 23.3699 100.04 22.6699 101.35 22.6699Z" fill="#E2761C"/>
<path d="M354.89 7.62C353.47 7.65 352.05 7.8 350.64 8.05C350.54 8.12 350.43 8.18 350.33 8.26C350.12 8.41 349.92 8.56999 349.72 8.72999C349.31 9.05999 348.92 9.42999 348.53 9.81999C348.14 10.22 347.76 10.65 347.39 11.11C347.02 11.57 346.66 12.06 346.31 12.58C345.96 13.1 345.63 13.65 345.3 14.23C344.98 14.81 344.67 15.41 344.37 16.04C344.03 16.77 343.71 17.52 343.41 18.31C343.11 19.1 342.83 19.92 342.57 20.77C343.03 20.9 343.49 21.03 343.97 21.15C344.44 21.27 344.93 21.38 345.42 21.49C345.91 21.59 346.41 21.69 346.91 21.78C347.41 21.87 347.92 21.95 348.44 22.03C348.96 22.1 349.48 22.17 350.01 22.23C350.54 22.29 351.07 22.34 351.61 22.38C352.15 22.42 352.69 22.46 353.24 22.48C353.79 22.5 354.34 22.52 354.9 22.53V7.62H354.89ZM356.3 7.62V22.52C356.85 22.52 357.41 22.49 357.95 22.47C358.5 22.44 359.04 22.41 359.57 22.37C360.11 22.33 360.64 22.28 361.16 22.22C361.69 22.16 362.2 22.09 362.72 22.02C363.23 21.95 363.74 21.86 364.24 21.77C364.74 21.68 365.23 21.58 365.72 21.48C366.21 21.37 366.69 21.26 367.16 21.14C367.63 21.02 368.1 20.89 368.55 20.76C368.3 19.93 368.02 19.12 367.72 18.34C367.42 17.56 367.11 16.82 366.77 16.1C366.48 15.47 366.17 14.87 365.85 14.29C365.53 13.71 365.19 13.16 364.85 12.64C364.5 12.12 364.15 11.63 363.78 11.17C363.41 10.71 363.04 10.28 362.65 9.88C362.26 9.48 361.87 9.10999 361.47 8.77999C361.27 8.60999 361.06 8.45 360.86 8.31C360.74 8.22 360.62 8.14999 360.51 8.06999C359.12 7.80999 357.71 7.67 356.3 7.63V7.62ZM347.56 8.8C342.53 10.33 338.05 13.27 334.64 17.27C335.06 17.54 335.49 17.81 335.95 18.07C336.49 18.37 337.06 18.66 337.65 18.94C338.21 19.2 338.78 19.45 339.38 19.69C339.98 19.93 340.59 20.15 341.23 20.36C341.5 19.48 341.79 18.64 342.1 17.82C342.26 17.41 342.42 17.01 342.59 16.61C342.76 16.22 342.93 15.83 343.11 15.45C343.42 14.79 343.75 14.15 344.09 13.54C344.43 12.93 344.79 12.35 345.16 11.79C345.53 11.23 345.91 10.71 346.31 10.21C346.51 9.96 346.71 9.72 346.92 9.49C347.13 9.25999 347.33 9.02999 347.55 8.81999C347.55 8.81999 347.56 8.81 347.57 8.8H347.56ZM363.61 8.81999C363.61 8.81999 363.65 8.86 363.67 8.88C364.09 9.31 364.5 9.77999 364.89 10.28C365.28 10.78 365.67 11.3 366.03 11.86C366.4 12.42 366.75 13 367.09 13.61C367.43 14.22 367.75 14.85 368.06 15.51C368.41 16.26 368.74 17.03 369.04 17.84C369.35 18.65 369.63 19.48 369.9 20.34C370.52 20.13 371.12 19.91 371.71 19.68C372.3 19.45 372.86 19.2 373.41 18.95C374 18.67 374.57 18.38 375.11 18.08C375.58 17.82 376.02 17.55 376.45 17.27C373.06 13.29 368.6 10.36 363.61 8.81999ZM333.75 18.37C330.23 22.97 328.25 28.57 328.1 34.36H339.16C339.16 33.79 339.18 33.23 339.21 32.67C339.23 32.11 339.27 31.56 339.31 31.01C339.35 30.46 339.4 29.92 339.45 29.38C339.51 28.84 339.57 28.31 339.64 27.78C339.71 27.25 339.79 26.73 339.88 26.21C339.97 25.69 340.06 25.18 340.16 24.67C340.26 24.16 340.37 23.67 340.49 23.17C340.61 22.68 340.73 22.19 340.86 21.71C340.19 21.49 339.54 21.25 338.91 21C338.28 20.75 337.67 20.49 337.08 20.21C336.46 19.92 335.86 19.61 335.28 19.29C334.75 19 334.25 18.69 333.76 18.37H333.75ZM377.35 18.37C376.86 18.69 376.34 19.01 375.81 19.3C375.24 19.62 374.64 19.92 374.01 20.21C373.43 20.48 372.83 20.74 372.21 20.98C371.59 21.22 370.95 21.46 370.3 21.67C370.43 22.15 370.55 22.64 370.67 23.13C370.79 23.62 370.89 24.12 371 24.63C371.1 25.14 371.2 25.65 371.28 26.17C371.37 26.69 371.45 27.21 371.52 27.74C371.59 28.27 371.66 28.81 371.71 29.35C371.77 29.89 371.81 30.44 371.86 30.99C371.9 31.54 371.93 32.1 371.96 32.66C371.98 33.22 372 33.78 372.01 34.35H383.01C382.86 28.56 380.88 22.97 377.36 18.37H377.35ZM368.95 22.11C368.48 22.25 368 22.38 367.51 22.5C367.02 22.62 366.53 22.74 366.02 22.85C365.52 22.96 365.01 23.06 364.49 23.15C363.97 23.24 363.45 23.33 362.92 23.41C362.39 23.49 361.86 23.56 361.31 23.62C360.77 23.68 360.22 23.73 359.67 23.78C359.12 23.82 358.56 23.86 358 23.88C357.44 23.91 356.87 23.92 356.3 23.93V34.36H370.58C370.58 33.81 370.56 33.26 370.53 32.72C370.51 32.18 370.48 31.64 370.44 31.11C370.4 30.58 370.35 30.05 370.3 29.53C370.25 29.01 370.18 28.49 370.11 27.98C370.04 27.47 369.96 26.96 369.88 26.46C369.8 25.96 369.71 25.46 369.61 24.98C369.51 24.49 369.41 24.01 369.3 23.53C369.19 23.05 369.07 22.59 368.95 22.12V22.11ZM342.2 22.12C342.08 22.58 341.96 23.05 341.85 23.52C341.74 23.99 341.63 24.48 341.54 24.96C341.44 25.45 341.35 25.94 341.27 26.44C341.19 26.94 341.11 27.45 341.04 27.96C340.97 28.47 340.91 28.99 340.85 29.51C340.8 30.03 340.75 30.56 340.71 31.09C340.67 31.62 340.64 32.16 340.62 32.7C340.6 33.24 340.58 33.79 340.57 34.34H354.91V23.91C354.34 23.91 353.77 23.89 353.2 23.86C352.64 23.83 352.08 23.8 351.52 23.76C350.97 23.72 350.42 23.67 349.87 23.61C349.33 23.55 348.79 23.48 348.26 23.41C347.73 23.33 347.2 23.25 346.68 23.16C346.16 23.07 345.65 22.97 345.14 22.86C344.63 22.75 344.14 22.64 343.65 22.51C343.16 22.39 342.68 22.26 342.2 22.12ZM328.1 35.76C328.25 41.55 330.22 47.14 333.73 51.74C334.22 51.42 334.72 51.11 335.25 50.81C335.83 50.49 336.43 50.18 337.05 49.89C337.64 49.61 338.26 49.35 338.89 49.1C339.52 48.85 340.18 48.61 340.85 48.39C340.72 47.91 340.6 47.43 340.48 46.94C340.37 46.45 340.26 45.95 340.16 45.44C340.06 44.94 339.97 44.42 339.88 43.91C339.79 43.39 339.72 42.87 339.64 42.34C339.57 41.81 339.51 41.28 339.45 40.74C339.39 40.2 339.35 39.66 339.31 39.11C339.27 38.56 339.24 38.01 339.21 37.45C339.19 36.89 339.17 36.33 339.16 35.76H328.1ZM340.57 35.76C340.57 36.31 340.59 36.85 340.62 37.39C340.64 37.93 340.67 38.47 340.71 39C340.75 39.53 340.8 40.06 340.85 40.58C340.9 41.1 340.97 41.62 341.03 42.13C341.1 42.64 341.17 43.15 341.26 43.65C341.34 44.15 341.43 44.64 341.53 45.13C341.63 45.62 341.73 46.1 341.84 46.57C341.95 47.04 342.07 47.51 342.19 47.97C342.67 47.83 343.15 47.7 343.64 47.58C344.13 47.46 344.63 47.34 345.14 47.23C345.65 47.12 346.16 47.02 346.68 46.93C347.2 46.84 347.73 46.75 348.26 46.68C348.79 46.6 349.33 46.53 349.88 46.47C350.42 46.41 350.97 46.36 351.53 46.32C352.09 46.28 352.65 46.24 353.21 46.22C353.77 46.19 354.34 46.18 354.92 46.17V35.76H340.58H340.57ZM356.31 35.76V46.17C356.88 46.17 357.45 46.2 358.01 46.22C358.57 46.25 359.13 46.28 359.68 46.32C360.23 46.36 360.78 46.42 361.32 46.48C361.86 46.54 362.4 46.61 362.93 46.69C363.46 46.77 363.98 46.85 364.5 46.95C365.02 47.04 365.53 47.14 366.03 47.25C366.53 47.36 367.03 47.48 367.52 47.6C368.01 47.72 368.49 47.86 368.96 47.99C369.08 47.53 369.2 47.06 369.31 46.59C369.42 46.12 369.52 45.63 369.62 45.15C369.72 44.66 369.81 44.17 369.89 43.67C369.97 43.17 370.05 42.66 370.12 42.15C370.19 41.64 370.25 41.12 370.3 40.6C370.35 40.08 370.4 39.55 370.44 39.02C370.48 38.49 370.51 37.95 370.53 37.41C370.55 36.87 370.57 36.32 370.58 35.77H356.3L356.31 35.76ZM372 35.76C372 36.33 371.98 36.89 371.95 37.45C371.93 38.01 371.89 38.56 371.85 39.11C371.81 39.66 371.76 40.2 371.71 40.74C371.65 41.28 371.59 41.81 371.52 42.34C371.45 42.87 371.37 43.39 371.28 43.91C371.19 44.43 371.1 44.94 371 45.45C370.9 45.96 370.79 46.45 370.68 46.95C370.56 47.44 370.44 47.93 370.31 48.41C370.97 48.63 371.62 48.86 372.24 49.11C372.87 49.36 373.47 49.62 374.06 49.9C374.68 50.19 375.28 50.5 375.86 50.82C376.39 51.11 376.89 51.42 377.37 51.74C380.89 47.14 382.86 41.55 383 35.76H372ZM354.91 47.57C354.35 47.57 353.8 47.59 353.25 47.62C352.7 47.64 352.16 47.68 351.62 47.72C351.08 47.76 350.55 47.81 350.02 47.87C349.49 47.93 348.97 48 348.45 48.07C347.93 48.14 347.42 48.23 346.92 48.32C346.42 48.41 345.92 48.51 345.43 48.61C344.94 48.72 344.46 48.83 343.98 48.95C343.51 49.07 343.04 49.2 342.58 49.33C342.84 50.18 343.12 51.01 343.42 51.8C343.57 52.2 343.73 52.59 343.89 52.97C344.05 53.35 344.22 53.72 344.39 54.09C344.69 54.72 345 55.33 345.32 55.9C345.64 56.48 345.98 57.03 346.33 57.55C346.68 58.07 347.04 58.56 347.4 59.02C347.77 59.48 348.15 59.91 348.54 60.31C348.93 60.71 349.33 61.07 349.73 61.41C349.93 61.58 350.14 61.73 350.34 61.88C350.44 61.96 350.55 62.02 350.65 62.09C352.06 62.35 353.48 62.49 354.91 62.52V47.57ZM356.32 47.57V62.51C357.74 62.47 359.15 62.32 360.55 62.06C360.65 61.99 360.76 61.93 360.86 61.85C361.07 61.7 361.27 61.54 361.47 61.38C361.87 61.05 362.27 60.68 362.66 60.28C363.05 59.88 363.43 59.45 363.79 58.99C364.16 58.53 364.52 58.04 364.86 57.52C365.21 57 365.54 56.45 365.86 55.87C366.18 55.29 366.49 54.69 366.79 54.06C367.13 53.33 367.45 52.58 367.75 51.79C368.05 51 368.33 50.18 368.59 49.33C368.13 49.2 367.67 49.07 367.2 48.95C366.73 48.83 366.25 48.72 365.76 48.61C365.27 48.5 364.78 48.41 364.28 48.32C363.78 48.23 363.27 48.15 362.76 48.07C362.25 47.99 361.73 47.93 361.2 47.87C360.67 47.81 360.14 47.76 359.61 47.72C359.07 47.68 358.53 47.64 357.98 47.62C357.43 47.59 356.88 47.58 356.33 47.57H356.32ZM341.24 49.74C340.6 49.95 339.99 50.17 339.39 50.41C338.79 50.65 338.21 50.9 337.66 51.16C337.07 51.44 336.5 51.73 335.96 52.03C335.5 52.29 335.06 52.56 334.64 52.84C338.05 56.85 342.54 59.8 347.58 61.34C347.58 61.34 347.56 61.32 347.55 61.31C347.13 60.88 346.72 60.41 346.32 59.91C345.92 59.41 345.54 58.89 345.17 58.33C344.8 57.77 344.45 57.19 344.11 56.58C343.77 55.97 343.45 55.33 343.14 54.68C342.96 54.3 342.79 53.91 342.62 53.51C342.45 53.11 342.29 52.71 342.13 52.3C341.82 51.48 341.52 50.62 341.26 49.74H341.24ZM369.93 49.76C369.66 50.63 369.37 51.48 369.06 52.3C368.9 52.71 368.74 53.11 368.58 53.51C368.41 53.9 368.24 54.29 368.06 54.67C367.75 55.33 367.43 55.96 367.09 56.57C366.75 57.18 366.4 57.76 366.03 58.32C365.66 58.88 365.28 59.4 364.88 59.9C364.48 60.4 364.07 60.86 363.65 61.3C363.65 61.3 363.64 61.31 363.63 61.32C368.63 59.78 373.09 56.84 376.48 52.85C376.06 52.58 375.63 52.31 375.17 52.05C374.63 51.75 374.06 51.45 373.46 51.17C372.91 50.91 372.34 50.66 371.75 50.43C371.16 50.2 370.55 49.97 369.92 49.76H369.93Z" fill="url(#paint0_linear_222_152)"/>
<path d="M382.58 0C381.9 0 381.25 0.27 380.77 0.75L370.57 10.95L360.37 0.75C359.37 -0.25 357.74 -0.25 356.74 0.75C356.26 1.23 355.99 1.89 355.99 2.57C355.99 3.25 356.26 3.9 356.74 4.39L366.94 14.59L356.74 24.79C356.26 25.27 355.99 25.93 355.99 26.61C355.99 27.29 356.26 27.94 356.74 28.43C357.22 28.91 357.88 29.18 358.56 29.18C359.24 29.18 359.89 28.91 360.38 28.43L370.58 18.23L380.78 28.43C381.78 29.43 383.41 29.43 384.41 28.43C384.89 27.95 385.16 27.29 385.16 26.61C385.16 25.93 384.89 25.28 384.41 24.79L374.21 14.59L384.41 4.39C385.41 3.39 385.41 1.76 384.41 0.76C383.93 0.28 383.27 0.01 382.59 0.01L382.58 0Z" fill="#E2761C"/>
<path opacity="0.53" d="M354.74 257.37C353.93 257.37 353.28 258.08 353.28 258.95V262.09C352.42 262.35 351.58 262.7 350.79 263.12L348.57 260.9C347.95 260.28 346.99 260.24 346.42 260.81L342.93 264.3C342.36 264.87 342.4 265.83 343.02 266.45L345.24 268.67C344.81 269.46 344.47 270.3 344.21 271.16H341.07C340.19 271.16 339.49 271.81 339.49 272.62V277.56C339.49 278.37 340.2 279.02 341.07 279.02H344.21C344.47 279.88 344.82 280.72 345.24 281.51L343.02 283.73C342.4 284.35 342.36 285.31 342.93 285.88L346.42 289.37C346.99 289.94 347.95 289.9 348.57 289.28L350.79 287.06C351.58 287.49 352.42 287.83 353.28 288.09V291.23C353.28 292.11 353.93 292.81 354.74 292.81H359.68C360.49 292.81 361.14 292.1 361.14 291.23V288.09C362 287.83 362.84 287.48 363.63 287.06L365.85 289.28C366.47 289.9 367.43 289.94 368 289.37L371.49 285.88C372.06 285.31 372.02 284.35 371.4 283.73L369.18 281.51C369.61 280.72 369.95 279.88 370.21 279.02H373.35C374.23 279.02 374.93 278.37 374.93 277.56V272.62C374.93 271.81 374.22 271.16 373.35 271.16H370.21C369.95 270.3 369.6 269.46 369.18 268.67L371.4 266.45C372.02 265.83 372.06 264.87 371.49 264.3L368 260.81C367.43 260.24 366.47 260.28 365.85 260.9L363.63 263.12C362.84 262.69 362 262.35 361.14 262.09V258.95C361.14 258.07 360.49 257.37 359.68 257.37H354.74ZM357.21 268.79C360.69 268.79 363.51 271.61 363.51 275.09C363.51 278.57 360.69 281.39 357.21 281.39C353.73 281.39 350.91 278.57 350.91 275.09C350.91 271.61 353.73 268.79 357.21 268.79Z" fill="#222221"/>
<path d="M353.12 257.37C352.31 257.37 351.66 258.08 351.66 258.95V262.09C350.8 262.35 349.96 262.7 349.17 263.12L346.95 260.9C346.33 260.28 345.37 260.24 344.8 260.81L341.31 264.3C340.74 264.87 340.78 265.83 341.4 266.45L343.62 268.67C343.19 269.46 342.85 270.3 342.59 271.16H339.45C338.57 271.16 337.87 271.81 337.87 272.62V277.56C337.87 278.37 338.58 279.02 339.45 279.02H342.59C342.85 279.88 343.2 280.72 343.62 281.51L341.4 283.73C340.78 284.35 340.74 285.31 341.31 285.88L344.8 289.37C345.37 289.94 346.33 289.9 346.95 289.28L349.17 287.06C349.96 287.49 350.8 287.83 351.66 288.09V291.23C351.66 292.11 352.31 292.81 353.12 292.81H358.06C358.87 292.81 359.52 292.1 359.52 291.23V288.09C360.38 287.83 361.22 287.48 362.01 287.06L364.23 289.28C364.85 289.9 365.81 289.94 366.38 289.37L369.87 285.88C370.44 285.31 370.4 284.35 369.78 283.73L367.56 281.51C367.99 280.72 368.33 279.88 368.59 279.02H371.73C372.61 279.02 373.31 278.37 373.31 277.56V272.62C373.31 271.81 372.6 271.16 371.73 271.16H368.59C368.33 270.3 367.98 269.46 367.56 268.67L369.78 266.45C370.4 265.83 370.44 264.87 369.87 264.3L366.38 260.81C365.81 260.24 364.85 260.28 364.23 260.9L362.01 263.12C361.22 262.69 360.38 262.35 359.52 262.09V258.95C359.52 258.07 358.87 257.37 358.06 257.37H353.12ZM355.59 268.79C359.07 268.79 361.89 271.61 361.89 275.09C361.89 278.57 359.07 281.39 355.59 281.39C352.11 281.39 349.29 278.57 349.29 275.09C349.29 271.61 352.11 268.79 355.59 268.79Z" fill="#222221"/>
<path opacity="0.1" d="M178.67 93.08C165.73 95.65 152.29 97.51 138.02 97.33C135.26 97.26 132.49 97.1 129.71 96.85C124.15 96.34 118.54 95.43 112.89 93.97C109.79 93.08 106.64 92.43 103.48 92.06C100.31 91.69 97.11 91.61 93.95 91.82C71.29 93.28 51.31 109.72 50.96 132.01C51.83 150.71 61.09 168.26 66.39 186.78C66.66 190.5 66.63 194.26 66.28 198.04C65.93 201.82 65.27 205.65 64.2 209.51C63.4 212.78 62.43 216.04 61.41 219.3C57.32 232.34 52.48 245.23 50.42 257.99C50.04 260.7 49.9 263.42 50.04 266.13C50.31 271.55 51.69 276.92 54.54 282.09C67.62 302.53 93.22 314.41 118.53 311.01C121.92 310.87 125.32 310.6 128.72 310.25C131.55 309.81 134.29 309.12 136.96 308.22C150.27 303.73 161.77 294.16 173.35 286.61C187.36 277.47 203.97 272.31 220.4 269.59C238.57 266.59 257.36 270.18 275.61 271.59C278.69 271.83 281.82 272 284.98 272.17C317.56 278.35 373.21 272.39 374.51 227.86C374.23 224.56 373.43 221.38 372.27 218.28C367.65 205.88 357.39 194.81 352.38 183.13C350.86 179.99 349.5 176.84 348.27 173.64C342.15 157.66 339.34 140.44 339.44 123.78C339.35 120.29 339.32 116.84 339.28 113.4C339.15 103.1 338.8 92.9 336.98 83.12C336.37 80.62 335.56 78.18 334.52 75.83C333.47 73.48 332.18 71.23 330.6 69.1C329.01 66.54 327.17 64.16 325.05 62.01C320.8 57.72 315.45 54.36 308.79 52.39C305.97 51.59 303.11 51.01 300.21 50.61C285.73 48.63 270.49 51.26 256.1 54.66C252.72 55.46 249.39 56.4 246.11 57.48C238.15 60.39 230.8 64.22 223.65 68.51C221.27 69.94 218.91 71.41 216.55 72.9C208.01 79.55 196.95 86.21 187.56 90.52C184.98 91.38 182.02 92.23 178.68 93.07L178.67 93.08Z" fill="#222221"/>
<g opacity="0.69">
<path d="M326.23 166.98C324.35 169.39 321.53 170.65 318.71 170.65C316.65 170.65 314.58 169.99 312.84 168.64C287.27 148.66 257.64 136.08 226.01 131.6C217.36 130.37 208.53 129.74 199.61 129.74C190.69 129.74 181.88 130.37 173.21 131.6C141.57 136.08 111.95 148.66 86.38 168.64C82.22 171.88 76.23 171.14 72.99 166.98C69.73 162.82 70.48 156.83 74.63 153.59C103.37 131.14 136.73 117.17 172.34 112.45C181.29 111.25 190.4 110.65 199.61 110.65C208.82 110.65 217.92 111.25 226.88 112.45C262.49 117.16 295.86 131.16 324.59 153.59C328.75 156.83 329.47 162.83 326.23 166.98Z" fill="#E2761C" stroke="#DAEBFE" stroke-miterlimit="10"/>
<path d="M298.2 204.31C296.32 206.69 293.53 207.95 290.7 207.95C288.63 207.95 286.54 207.28 284.8 205.89C266.78 191.67 246.05 182.37 223.86 178.49C215.94 177.09 207.82 176.38 199.6 176.38C191.38 176.38 183.27 177.09 175.34 178.49C153.15 182.37 132.42 191.67 114.4 205.89C110.26 209.15 104.26 208.45 100.99 204.31C97.73 200.18 98.43 194.17 102.57 190.9C123.77 174.17 148.26 163.44 174.46 159.29C182.68 157.96 191.08 157.31 199.59 157.31C208.1 157.31 216.5 157.97 224.72 159.29C250.91 163.45 275.41 174.17 296.61 190.9C300.75 194.17 301.45 200.18 298.18 204.31H298.2Z" fill="#E2761C" stroke="#DAEBFE" stroke-miterlimit="10"/>
<path d="M268.42 244.17C265.11 248.27 259.1 248.9 255 245.57C244.9 237.39 233.11 231.58 220.6 228.49C213.76 226.81 206.72 225.93 199.61 225.93C192.5 225.93 185.45 226.8 178.62 228.49C166.11 231.57 154.32 237.39 144.22 245.57C142.45 247.01 140.32 247.7 138.21 247.7C135.44 247.7 132.68 246.5 130.8 244.17C127.47 240.07 128.1 234.06 132.2 230.75C145.21 220.2 160.54 212.9 176.76 209.35C184.23 207.71 191.9 206.87 199.61 206.87C207.32 206.87 214.99 207.71 222.46 209.35C238.68 212.91 254.02 220.2 267.02 230.75C271.1 234.06 271.73 240.07 268.42 244.17Z" fill="#E2761C" stroke="#DAEBFE" stroke-miterlimit="10"/>
</g>
<path style="mix-blend-mode:multiply" d="M199.61 206.86C207.32 206.86 214.99 207.7 222.46 209.34L221.87 221.98C221.77 224.26 221.33 226.45 220.6 228.49C213.76 226.81 206.72 225.93 199.61 225.93C192.5 225.93 185.45 226.8 178.62 228.49C177.89 226.45 177.45 224.26 177.35 221.98L176.76 209.34C184.23 207.7 191.9 206.86 199.61 206.86Z" fill="url(#paint1_linear_222_152)"/>
<path style="mix-blend-mode:multiply" d="M199.61 157.3C208.12 157.3 216.52 157.96 224.74 159.28L223.87 178.48C215.95 177.08 207.83 176.37 199.61 176.37C191.39 176.37 183.28 177.08 175.35 178.48L174.48 159.28C182.7 157.95 191.1 157.3 199.61 157.3Z" fill="url(#paint2_linear_222_152)"/>
<path style="mix-blend-mode:multiply" d="M226.88 112.45L226.01 131.6C217.36 130.37 208.53 129.74 199.61 129.74C190.69 129.74 181.88 130.37 173.21 131.6L172.34 112.45C181.29 111.25 190.4 110.65 199.61 110.65C208.82 110.65 217.92 111.25 226.88 112.45Z" fill="url(#paint3_linear_222_152)"/>
<path d="M98.21 291.11L72.76 335.19C72.43 335.76 72.84 336.47 73.5 336.47H124.4C125.06 336.47 125.47 335.76 125.14 335.19L99.69 291.11C99.36 290.54 98.54 290.54 98.21 291.11Z" fill="#E2761C"/>
<path d="M100.96 328.27C100.96 329.38 100.06 330.28 98.95 330.28C97.84 330.28 96.94 329.38 96.94 328.27C96.94 327.16 97.84 326.26 98.95 326.26C100.06 326.26 100.96 327.16 100.96 328.27Z" fill="#222221"/>
<path d="M98.95 324.32C98.04 324.32 97.29 323.6 97.25 322.69L96.56 307.61C96.5 306.25 97.59 305.11 98.95 305.11C100.32 305.11 101.4 306.25 101.34 307.61L100.65 322.69C100.61 323.6 99.86 324.32 98.95 324.32Z" fill="#222221"/>
<path d="M223.899 279.808C226.002 266.391 216.831 253.81 203.414 251.706C189.997 249.603 177.416 258.774 175.312 272.191C173.209 285.608 182.38 298.189 195.797 300.293C209.214 302.396 221.795 293.225 223.899 279.808Z" fill="#E2761C"/>
<path d="M199.61 237.53C190.75 237.53 183.46 230.56 183.05 221.72L176.32 74.92C175.71 61.64 186.31 50.55 199.6 50.55C212.89 50.55 223.49 61.65 222.88 74.92L216.15 221.72C215.74 230.57 208.45 237.53 199.59 237.53H199.61Z" fill="#E2761C"/>
<path d="M372.79 161.63C372.27 163.29 370.51 164.21 368.85 163.69C367.19 163.17 366.27 161.41 366.79 159.75C367.31 158.09 369.07 157.17 370.73 157.69C372.39 158.21 373.31 159.97 372.79 161.63Z" fill="#E2761C"/>
<path d="M371.63 154.79C370.27 154.37 369.49 152.95 369.85 151.57L375.85 128.73C376.39 126.66 378.55 125.47 380.59 126.11C382.63 126.75 383.72 128.96 382.99 130.96L374.92 153.15C374.43 154.49 372.98 155.21 371.62 154.78L371.63 154.79Z" fill="#E2761C"/>
</g>
<defs>
<linearGradient id="paint0_linear_222_152" x1="326.81" y1="35.08" x2="381.71" y2="35.08" gradientUnits="userSpaceOnUse">
<stop stop-color="#E2761C"/>
<stop offset="0.18" stop-color="#E68C41"/>
<stop offset="0.45" stop-color="#EDAC75"/>
<stop offset="0.69" stop-color="#F2C29B"/>
<stop offset="0.88" stop-color="#F4D0B2"/>
<stop offset="1" stop-color="#F6D6BB"/>
</linearGradient>
<linearGradient id="paint1_linear_222_152" x1="199.61" y1="234.27" x2="199.61" y2="211.08" gradientUnits="userSpaceOnUse">
<stop stop-color="#E2F4FF"/>
<stop offset="1" stop-color="#D7ECFF"/>
</linearGradient>
<linearGradient id="paint2_linear_222_152" x1="199.61" y1="184.15" x2="199.61" y2="161.43" gradientUnits="userSpaceOnUse">
<stop stop-color="#E2F4FF"/>
<stop offset="1" stop-color="#D7ECFF"/>
</linearGradient>
<linearGradient id="paint3_linear_222_152" x1="199.61" y1="137.19" x2="199.61" y2="114.73" gradientUnits="userSpaceOnUse">
<stop stop-color="#E2F4FF"/>
<stop offset="1" stop-color="#D7ECFF"/>
</linearGradient>
<clipPath id="clip0_222_152">
<rect width="385.16" height="336.47" fill="white"/>
</clipPath>
</defs>
</svg>
