<svg width="468" height="377" viewBox="0 0 468 377" fill="none" xmlns="http://www.w3.org/2000/svg">
<path d="M210.37 196.85H56.1V310.65H210.37V196.85Z" fill="#F2F1FF"/>
<path d="M210.37 196.85H56.1V211.04H210.37V196.85Z" fill="#C6B8AF"/>
<path d="M68.48 204.28C68.48 206.07 67.03 207.53 65.23 207.53C63.43 207.53 61.98 206.08 61.98 204.28C61.98 202.48 63.43 201.03 65.23 201.03C67.03 201.03 68.48 202.48 68.48 204.28Z" fill="#EEE0AB"/>
<path d="M79.42 204.28C79.42 206.07 77.97 207.53 76.17 207.53C74.37 207.53 72.92 206.08 72.92 204.28C72.92 202.48 74.37 201.03 76.17 201.03C77.97 201.03 79.42 202.48 79.42 204.28Z" fill="#EEE0AB"/>
<path d="M90.36 204.28C90.36 206.07 88.91 207.53 87.11 207.53C85.31 207.53 83.86 206.08 83.86 204.28C83.86 202.48 85.31 201.03 87.11 201.03C88.91 201.03 90.36 202.48 90.36 204.28Z" fill="#EEE0AB"/>
<path d="M159.57 242L151.81 234.24L133.23 252.82L114.65 234.24L106.89 242L125.47 260.58L106.89 279.16L114.65 286.91L133.23 268.33L151.81 286.91L159.57 279.16L140.99 260.58L159.57 242Z" fill="#DAD0DE"/>
<path d="M399.74 125.08H245.47V238.88H399.74V125.08Z" fill="#F2F1FF"/>
<path d="M399.74 125.08H245.47V139.27H399.74V125.08Z" fill="#C6B8AF"/>
<path d="M257.86 132.5C257.86 134.29 256.41 135.75 254.61 135.75C252.81 135.75 251.36 134.3 251.36 132.5C251.36 130.7 252.81 129.25 254.61 129.25C256.41 129.25 257.86 130.7 257.86 132.5Z" fill="#EEE0AB"/>
<path d="M268.79 132.5C268.79 134.29 267.34 135.75 265.54 135.75C263.74 135.75 262.29 134.3 262.29 132.5C262.29 130.7 263.74 129.25 265.54 129.25C267.34 129.25 268.79 130.7 268.79 132.5Z" fill="#EEE0AB"/>
<path d="M279.73 132.5C279.73 134.29 278.28 135.75 276.48 135.75C274.68 135.75 273.23 134.3 273.23 132.5C273.23 130.7 274.68 129.25 276.48 129.25C278.28 129.25 279.73 130.7 279.73 132.5Z" fill="#EEE0AB"/>
<path d="M348.94 170.22L341.19 162.47L322.6 181.05L304.02 162.47L296.27 170.22L314.85 188.81L296.27 207.39L304.02 215.14L322.6 196.56L341.19 215.14L348.94 207.39L330.36 188.81L348.94 170.22Z" fill="#DAD0DE"/>
<path d="M185.43 83.6301C183.99 80.6201 184.07 77.7001 185.66 74.8801L186.43 73.5301C187.18 72.3001 187.67 71.3601 187.88 70.6901C188.09 70.0301 188.03 69.3601 187.71 68.6801C186.89 66.9701 185.05 66.8001 182.19 68.1601C180.86 68.7901 179.57 69.6301 178.33 70.6601C177.08 71.6901 175.98 72.8301 175.02 74.0901L171.77 67.2701C173.89 64.7401 176.64 62.6701 180 61.0601C183.63 59.3301 186.87 58.7201 189.72 59.2201C192.57 59.7301 194.63 61.3201 195.92 64.0101C196.64 65.5201 196.88 66.8901 196.64 68.1501C196.4 69.4001 195.75 70.9901 194.68 72.9201C193.97 74.2401 193.46 75.2301 193.17 75.9001C192.87 76.5701 192.72 77.2301 192.73 77.8801C192.73 78.5301 192.92 79.2401 193.28 80.0101L193.68 80.8501L185.89 84.5701L185.45 83.6401L185.43 83.6301ZM191.4 93.8001C190.24 93.3901 189.39 92.6101 188.84 91.4601C188.28 90.2801 188.2 89.1201 188.62 87.9801C189.03 86.8401 189.83 85.9901 191.01 85.4301C192.16 84.8801 193.33 84.8001 194.51 85.2001C195.69 85.6001 196.56 86.3701 197.11 87.5201C197.66 88.6701 197.71 89.8301 197.28 91.0001C196.84 92.1701 196.05 93.0301 194.9 93.5801C193.72 94.1401 192.55 94.2201 191.4 93.8101V93.8001Z" fill="#E0A477"/>
<path d="M223.25 57.6301C225.19 53.0001 228.54 50.1601 233.3 49.1101L235.58 48.6301C237.72 48.2401 239.26 47.84 240.21 47.41C241.16 46.98 241.86 46.2501 242.3 45.2001C243.4 42.5701 241.75 40.3301 237.35 38.4801C235.31 37.6201 233.08 37.01 230.67 36.64C228.26 36.27 225.87 36.1801 223.5 36.3601L227.89 25.8701C232.87 25.7101 237.94 26.72 243.12 28.89C248.7 31.23 252.64 34.25 254.93 37.96C257.22 41.67 257.5 45.5901 255.77 49.7201C254.8 52.0401 253.49 53.69 251.85 54.68C250.21 55.67 247.76 56.53 244.53 57.26C242.34 57.78 240.71 58.21 239.67 58.55C238.62 58.89 237.73 59.3801 237.01 60.0401C236.28 60.7001 235.67 61.6101 235.18 62.7901L234.64 64.09L222.65 59.07L223.25 57.64V57.6301ZM217.82 74.53C217.12 72.82 217.14 71.08 217.88 69.31C218.64 67.49 219.87 66.25 221.57 65.57C223.27 64.89 225.02 64.94 226.84 65.7C228.61 66.44 229.87 67.6801 230.61 69.4001C231.35 71.1301 231.36 72.8701 230.61 74.6501C229.86 76.4301 228.62 77.6501 226.87 78.3301C225.12 79.0101 223.36 78.98 221.58 78.24C219.76 77.48 218.51 76.2501 217.81 74.5401L217.82 74.53Z" fill="#E0A477"/>
<path d="M421.6 224.67V219.34H418.06V224.67H412.73V228.21H418.06V233.54H421.6V228.21H426.93V224.67H421.6Z" fill="#807467"/>
<path d="M388.14 54.0901V45.9701H382.73V54.0901H374.61V59.5001H382.73V67.6201H388.14V59.5001H396.26V54.0901H388.14Z" fill="#807467"/>
<path d="M373.41 211.4V207.52H370.83V211.4H366.95V213.98H370.83V217.86H373.41V213.98H377.29V211.4H373.41Z" fill="#807467"/>
<path d="M152.1 76.42V72.53H149.52V76.42H145.64V79H149.52V82.88H152.1V79H155.98V76.42H152.1Z" fill="#807467"/>
<path d="M122.18 50.75V45.42H118.64V50.75H113.31V54.29H118.64V59.62H122.18V54.29H127.51V50.75H122.18Z" fill="#807467"/>
<path d="M293.3 72.26C293.3 73.38 292.39 74.29 291.27 74.29C290.15 74.29 289.24 73.38 289.24 72.26C289.24 71.14 290.15 70.23 291.27 70.23C292.39 70.23 293.3 71.14 293.3 72.26Z" fill="#E9DEFF"/>
<path d="M301.6 37.42C301.6 38.54 300.69 39.45 299.57 39.45C298.45 39.45 297.54 38.54 297.54 37.42C297.54 36.3 298.45 35.39 299.57 35.39C300.69 35.39 301.6 36.3 301.6 37.42Z" fill="#E9DEFF"/>
<path d="M341.18 57.91C343.301 57.91 345.02 56.1908 345.02 54.07C345.02 51.9492 343.301 50.23 341.18 50.23C339.059 50.23 337.34 51.9492 337.34 54.07C337.34 56.1908 339.059 57.91 341.18 57.91Z" fill="#E9DEFF"/>
<path d="M422.03 198.22C422.03 199.34 421.12 200.25 420 200.25C418.88 200.25 417.97 199.34 417.97 198.22C417.97 197.1 418.88 196.19 420 196.19C421.12 196.19 422.03 197.1 422.03 198.22Z" fill="#E9DEFF"/>
<path d="M420 261.49C420 262.61 419.09 263.52 417.97 263.52C416.85 263.52 415.94 262.61 415.94 261.49C415.94 260.37 416.85 259.46 417.97 259.46C419.09 259.46 420 260.37 420 261.49Z" fill="#E9DEFF"/>
<path d="M111.46 150.83C111.46 151.95 110.55 152.86 109.43 152.86C108.31 152.86 107.4 151.95 107.4 150.83C107.4 149.71 108.31 148.8 109.43 148.8C110.55 148.8 111.46 149.71 111.46 150.83Z" fill="#E9DEFF"/>
<path d="M76.19 70.6201C78.3108 70.6201 80.03 68.9008 80.03 66.7801C80.03 64.6593 78.3108 62.9401 76.19 62.9401C74.0692 62.9401 72.35 64.6593 72.35 66.7801C72.35 68.9008 74.0692 70.6201 76.19 70.6201Z" fill="#E9DEFF"/>
<path d="M151.86 45.13C151.86 46.25 150.95 47.16 149.83 47.16C148.71 47.16 147.8 46.25 147.8 45.13C147.8 44.01 148.71 43.1 149.83 43.1C150.95 43.1 151.86 44.01 151.86 45.13Z" fill="#E9DEFF"/>
<path d="M44.87 166.66C44.87 167.78 43.96 168.69 42.84 168.69C41.72 168.69 40.81 167.78 40.81 166.66C40.81 165.54 41.72 164.63 42.84 164.63C43.96 164.63 44.87 165.54 44.87 166.66Z" fill="#E9DEFF"/>
<path d="M44.87 274.65C44.87 275.77 43.96 276.68 42.84 276.68C41.72 276.68 40.81 275.77 40.81 274.65C40.81 273.53 41.72 272.62 42.84 272.62C43.96 272.62 44.87 273.53 44.87 274.65Z" fill="#E9DEFF"/>
<path d="M322.8 330.29C322.05 335.26 317.06 339.32 311.71 339.32H153.46C148.11 339.32 143.07 335.26 142.25 330.31L116.05 171.4C115.23 166.44 118.94 162.39 124.29 162.39H338.46C343.81 162.39 347.57 166.45 346.82 171.42L322.81 330.29H322.8Z" fill="#E38333"/>
<path d="M283.09 109.3H149.83V297.02H312.79V139.43L283.09 109.3Z" fill="#B9ADAB"/>
<path d="M283.09 109.3L313.01 139.21H283.09V109.3Z" fill="#20242B"/>
<path d="M276.55 168.66L263.26 155.37L231.42 187.21L199.59 155.37L186.3 168.66L218.13 200.49L186.3 232.33L199.59 245.62L231.42 213.78L263.26 245.62L276.55 232.33L244.71 200.49L276.55 168.66Z" fill="#A7A3A4"/>
<path d="M246.88 216.92C242.68 216.92 238.23 213.64 236.99 209.63L230.89 189.83C229.65 185.81 225.2 182.53 221 182.53H112.45C108.25 182.53 105.41 185.91 106.15 190.05L132.65 339.36C133.38 343.5 137.42 346.88 141.62 346.88H329.66C333.86 346.88 337.84 343.48 338.5 339.33L356.73 224.29C357.39 220.14 354.49 216.75 350.29 216.75L246.89 216.9L246.88 216.92Z" fill="#E2761C"/>
<path d="M220.44 286.89C220.44 281.08 222.75 276.55 227.36 273.3L229.58 271.76C231.69 270.39 233.16 269.27 233.98 268.38C234.8 267.5 235.22 266.4 235.22 265.09C235.22 261.79 232.45 260.13 226.93 260.13C224.37 260.13 221.72 260.47 218.98 261.16C216.25 261.84 213.65 262.81 211.2 264.06V250.9C216.44 248.51 222.31 247.31 228.81 247.31C235.82 247.31 241.37 248.78 245.48 251.71C249.58 254.64 251.63 258.7 251.63 263.89C251.63 266.8 250.98 269.15 249.67 270.94C248.36 272.73 246.14 274.74 243 276.96C240.89 278.5 239.35 279.68 238.38 280.51C237.41 281.34 236.68 282.26 236.2 283.29C235.71 284.32 235.47 285.57 235.47 287.05V288.68H220.43V286.89H220.44ZM222.19 307.36C220.68 305.85 219.92 303.98 219.92 301.76C219.92 299.54 220.67 297.6 222.19 296.12C223.7 294.64 225.59 293.9 227.87 293.9C230.15 293.9 231.99 294.65 233.55 296.16C235.12 297.67 235.9 299.54 235.9 301.76C235.9 303.98 235.12 305.85 233.55 307.36C231.98 308.87 230.09 309.62 227.87 309.62C225.65 309.62 223.7 308.87 222.19 307.36Z" fill="white"/>
<path opacity="0.1" d="M350.28 216.77L338.52 216.79C338.78 219.5 338.92 222.23 338.92 224.99C338.92 286.65 272.92 336.64 191.51 336.64C169.7 336.64 149 333.05 130.38 326.61L132.64 339.37C133.37 343.51 137.41 346.89 141.61 346.89H329.65C333.85 346.89 337.83 343.49 338.49 339.34L356.72 224.3C357.38 220.15 354.48 216.76 350.28 216.76V216.77Z" fill="#003B71"/>
<g opacity="0.3">
<path d="M124.39 204.69C124.95 208.44 125.51 212.19 126.07 215.93C127.4 224.85 128.73 233.77 130.06 242.69C131.68 253.55 133.3 264.41 134.92 275.27C136.31 284.59 137.7 293.92 139.09 303.24C139.55 306.34 140.01 309.44 140.48 312.53C140.7 313.98 140.82 315.49 141.14 316.93C141.15 316.99 141.16 317.06 141.17 317.12C141.36 318.4 142.97 319.1 144.11 318.79C145.48 318.41 145.97 317.13 145.78 315.85C145.22 312.1 144.66 308.35 144.1 304.61C142.77 295.69 141.44 286.77 140.11 277.85C138.49 266.99 136.87 256.13 135.25 245.27C133.86 235.95 132.47 226.62 131.08 217.3C130.62 214.2 130.16 211.1 129.69 208.01C129.47 206.56 129.35 205.05 129.03 203.61C129.02 203.55 129.01 203.48 129 203.42C128.81 202.14 127.2 201.44 126.06 201.75C124.69 202.13 124.2 203.41 124.39 204.69Z" fill="white"/>
</g>
<path d="M386.44 122.02C371.77 122.02 359.87 133.91 359.87 148.59C359.87 155.15 362.25 161.15 366.19 165.78L365.08 179.46L377.77 173.7C380.49 174.64 383.4 175.15 386.44 175.15C401.11 175.15 413.01 163.26 413.01 148.58C413.01 133.9 401.12 122.01 386.44 122.01V122.02Z" fill="#E38333"/>
<path d="M384.6 162.19C384.11 161.7 383.87 161.1 383.87 160.39C383.87 159.68 384.11 159.08 384.6 158.59C385.09 158.1 385.69 157.86 386.4 157.86C387.11 157.86 387.72 158.1 388.22 158.59C388.72 159.08 388.97 159.68 388.97 160.39C388.97 161.1 388.72 161.7 388.22 162.19C387.72 162.68 387.11 162.92 386.4 162.92C385.69 162.92 385.09 162.68 384.6 162.19ZM383.1 132.31H389.79L388.55 153.7H384.35L383.11 132.31H383.1Z" fill="#EEE0AB"/>
<path opacity="0.1" d="M371.88 162.66C369 162.66 366.18 162.41 363.47 161.93C364.26 163.29 365.17 164.58 366.19 165.77L365.08 179.45L377.77 173.69C380.49 174.63 383.4 175.14 386.44 175.14C401.11 175.14 413.01 163.25 413.01 148.57C413.01 145.01 412.31 141.62 411.04 138.52C405.72 152.51 390.21 162.64 371.89 162.64L371.88 162.66Z" fill="#003B71"/>
<path d="M107.52 121.26V96.0699C107.52 93.0399 105.04 90.5699 102.02 90.5699H56.1C53.07 90.5699 50.6 93.0499 50.6 96.0699V127.82C50.6 130.85 53.08 133.32 56.1 133.32H120.77L107.52 121.27V121.26Z" fill="#E38333"/>
<path d="M71.38 108.41C71.38 110.83 69.98 112.79 68.24 112.79C66.5 112.79 65.1 110.83 65.1 108.41C65.1 105.99 66.5 104.03 68.24 104.03C69.98 104.03 71.38 105.99 71.38 108.41Z" fill="white"/>
<path d="M92.23 108.41C92.23 110.83 90.83 112.79 89.09 112.79C87.35 112.79 85.95 110.83 85.95 108.41C85.95 105.99 87.35 104.03 89.09 104.03C90.83 104.03 92.23 105.99 92.23 108.41Z" fill="white"/>
<path d="M71.49 120.64C72.57 119.46 74.06 118.54 75.55 118C79.32 116.64 82.96 118.06 85.83 120.64C86.6 121.33 87.73 120.2 86.96 119.51C83.78 116.65 79.65 114.97 75.42 116.35C73.56 116.96 71.68 118.05 70.35 119.51C69.66 120.27 70.79 121.41 71.48 120.64H71.49Z" fill="white"/>
<path opacity="0.1" d="M107.52 121.26V96.0699C107.52 93.0399 105.04 90.5699 102.02 90.5699H97.31C98.13 93.5599 98.57 96.6599 98.57 99.8499C98.57 113.23 90.97 125.22 78.97 133.32H120.77L107.52 121.27V121.26Z" fill="#003B71"/>
<path d="M272.91 255.93C258.18 270.66 258.18 294.53 272.91 309.25C287.64 323.98 311.51 323.98 326.23 309.25C340.96 294.52 340.96 270.65 326.23 255.93C311.5 241.2 287.63 241.2 272.91 255.93ZM321.91 304.93C309.57 317.27 289.57 317.27 277.23 304.93C264.89 292.59 264.89 272.59 277.23 260.25C289.57 247.91 309.57 247.91 321.91 260.25C334.25 272.59 334.25 292.59 321.91 304.93Z" fill="#E38333"/>
<path opacity="0.3" d="M299.57 314.18C317.017 314.18 331.16 300.037 331.16 282.59C331.16 265.143 317.017 251 299.57 251C282.123 251 267.98 265.143 267.98 282.59C267.98 300.037 282.123 314.18 299.57 314.18Z" fill="white"/>
<path d="M325.214 303.516L320.49 308.239L363.242 350.991L367.966 346.267L325.214 303.516Z" fill="#2A2B2A"/>
<path d="M325.218 303.521L320.494 308.245L336.242 323.992L340.965 319.269L325.218 303.521Z" fill="#E38333"/>
<path d="M281.18 269.6C282.38 266.14 285.01 263.35 288.17 261.4C291.35 259.47 295.13 258.44 298.9 258.44C302.68 258.44 306.46 259.46 309.64 261.39C312.8 263.33 315.43 266.13 316.62 269.6C313.17 268.43 310.24 267.51 307.34 266.95C304.46 266.37 301.68 266.1 298.9 266.09C296.12 266.09 293.34 266.36 290.46 266.95C287.56 267.51 284.63 268.44 281.19 269.61L281.18 269.6Z" fill="white"/>
</svg>
