<svg width="394" height="350" viewBox="0 0 394 350" fill="none" xmlns="http://www.w3.org/2000/svg">
<g clip-path="url(#clip0_214_411)">
<path d="M260.67 123.18C260.1 118.84 259.01 112.52 256.35 105.21C253.75 97.92 249.57 89.53 242.88 82.22C236.31 74.9 226.47 69.39 215.66 69.45C204.86 69.48 195.06 75.07 188.52 82.42C181.87 89.77 177.73 98.18 175.14 105.48C172.51 112.8 171.44 119.13 170.88 123.47C170.6 125.65 170.48 127.35 170.45 128.51C170.4 129.67 170.4 130.27 170.45 130.28C170.89 130.4 170.95 120.4 176.26 106.02C178.93 98.92 183.11 90.77 189.6 83.74C195.98 76.7 205.35 71.46 215.65 71.41C225.96 71.36 235.36 76.54 241.78 83.54C248.3 90.53 252.51 98.66 255.21 105.75C260.58 120.11 260.66 130.11 261.1 129.99C261.16 129.99 261.16 129.38 261.1 128.22C261.06 127.06 260.94 125.36 260.65 123.18H260.67Z" fill="black"/>
<path d="M245.01 123.18C244.44 118.84 243.35 112.52 240.69 105.21C238.09 97.92 233.91 89.53 227.22 82.22C220.65 74.9 210.81 69.39 200 69.45C189.2 69.48 179.4 75.07 172.86 82.42C166.21 89.77 162.07 98.18 159.48 105.48C156.85 112.8 155.78 119.13 155.22 123.47C154.94 125.65 154.82 127.35 154.79 128.51C154.74 129.67 154.74 130.27 154.79 130.28C155.23 130.4 155.29 120.4 160.6 106.02C163.27 98.92 167.45 90.77 173.94 83.74C180.32 76.7 189.69 71.46 199.99 71.41C210.3 71.36 219.7 76.54 226.12 83.54C232.64 90.53 236.85 98.66 239.55 105.75C244.92 120.11 245 130.11 245.44 129.99C245.5 129.99 245.5 129.38 245.44 128.22C245.4 127.06 245.28 125.36 244.99 123.18H245.01Z" fill="black"/>
<path d="M136.96 118.53L133.1 337.57H331.47L313.74 119.75L136.96 118.53Z" fill="#E2761C"/>
<path d="M332.19 338.22H132.43V337.55L136.31 117.86H136.96L314.34 119.09L314.39 119.69L332.19 338.21V338.22ZM133.77 336.91H330.77L313.14 120.4L137.61 119.18L133.78 336.9L133.77 336.91Z" fill="#332A28"/>
<path d="M95.6599 337.57H133.1L136.96 118.53H114.76L95.6599 337.57Z" fill="#5B6A6C"/>
<path d="M95.6599 337.57H133.1L136.96 118.53H114.76L95.6599 337.57Z" fill="#E07A26"/>
<path d="M133.83 338.31H94.83L94.9 337.5L114.07 117.78H137.71V118.54L133.83 338.31ZM96.47 336.81H132.36L136.19 119.27H115.45L96.47 336.81Z" fill="#332A28"/>
<path d="M261.28 209.48C247.47 209.5 238.15 220.33 238.17 233.71C238.19 247.23 247.41 257.89 261.08 257.87C274.89 257.85 284.21 246.89 284.19 233.64C284.17 220.12 274.95 209.46 261.28 209.48ZM261.33 245.57C255.92 245.57 252.39 240.04 252.38 233.69C252.38 227.2 255.34 221.79 261.03 221.78C266.44 221.78 269.97 227.31 269.98 233.66C269.98 240.01 267.02 245.56 261.33 245.57Z" fill="#E17B26"/>
<path d="M225.92 185.33C225.9 171.81 216.68 161.15 203.01 161.17C189.2 161.19 179.88 172.02 179.9 185.4C179.92 198.92 189.14 209.58 202.81 209.56C216.62 209.54 225.94 198.58 225.92 185.33ZM194.11 185.38C194.11 178.89 197.07 173.48 202.76 173.47C208.17 173.47 211.7 179 211.71 185.35C211.71 191.7 208.75 197.25 203.06 197.26C197.65 197.26 194.12 191.73 194.11 185.38Z" fill="#E17B26"/>
<path d="M258.5 162.17L189.47 256.89L205.58 256.87L274.61 162.15L258.5 162.17Z" fill="#E17B26"/>
<path d="M221.83 183.3C221.81 169.78 212.59 159.12 198.92 159.14C185.11 159.16 175.79 169.99 175.81 183.37C175.83 196.89 185.05 207.55 198.72 207.53C212.53 207.51 221.85 196.55 221.83 183.3ZM190.02 183.35C190.02 176.86 192.98 171.45 198.67 171.44C204.08 171.44 207.61 176.97 207.62 183.32C207.62 189.67 204.66 195.22 198.97 195.23C193.56 195.23 190.03 189.7 190.02 183.35Z" fill="white"/>
<path d="M254.42 160.14L185.39 254.86L201.5 254.84L270.53 160.12L254.42 160.14Z" fill="white"/>
<path d="M257.2 207.45C243.39 207.47 234.07 218.3 234.09 231.68C234.11 245.2 243.33 255.86 257 255.84C270.81 255.82 280.13 244.86 280.11 231.61C280.09 218.09 270.87 207.43 257.2 207.45ZM257.25 243.54C251.84 243.54 248.31 238.01 248.3 231.66C248.3 225.17 251.26 219.76 256.95 219.75C262.36 219.75 265.89 225.28 265.9 231.63C265.9 237.98 262.94 243.53 257.25 243.54Z" fill="white"/>
<path d="M193.06 292.43C191.92 291.71 190.68 291.14 189.34 290.71C188 290.28 186.64 289.92 185.29 289.63C183.93 289.34 182.69 289.06 181.57 288.79C180.45 288.52 179.54 288.17 178.84 287.74C178.14 287.31 177.78 286.71 177.78 285.94C177.78 285.43 177.96 284.95 178.31 284.5C178.66 284.05 179.24 283.69 180.04 283.4C180.84 283.11 181.89 282.97 183.21 282.97C184.68 282.97 186.2 283.18 187.77 283.59C189.34 284.01 190.92 284.66 192.52 285.55L195.4 278.56C193.77 277.57 191.89 276.83 189.76 276.33C187.63 275.84 185.47 275.59 183.26 275.59C179.97 275.59 177.21 276.09 175.01 277.08C172.8 278.07 171.16 279.38 170.07 281.01C168.98 282.64 168.44 284.44 168.44 286.42C168.44 288.21 168.78 289.69 169.47 290.88C170.16 292.06 171.06 293.02 172.18 293.75C173.3 294.49 174.55 295.08 175.92 295.52C177.29 295.97 178.65 296.33 179.97 296.6C181.3 296.87 182.53 297.16 183.66 297.46C184.8 297.76 185.71 298.13 186.42 298.56C187.12 298.99 187.48 299.57 187.48 300.31C187.48 300.88 187.3 301.38 186.93 301.8C186.56 302.22 185.99 302.54 185.2 302.76C184.42 302.98 183.35 303.1 182.01 303.1C180.06 303.1 178.1 302.79 176.13 302.17C174.16 301.55 172.43 300.76 170.92 299.8L167.8 306.84C169.37 307.89 171.42 308.76 173.97 309.45C176.51 310.14 179.18 310.48 181.96 310.48C185.29 310.48 188.05 309.98 190.26 308.99C192.47 308 194.12 306.68 195.23 305.04C196.33 303.4 196.89 301.6 196.89 299.65C196.89 297.89 196.54 296.43 195.83 295.27C195.13 294.1 194.21 293.16 193.07 292.44L193.06 292.43Z" fill="white"/>
<path d="M214.72 280.91L216.59 285.57L218.46 280.91H214.72Z" fill="white"/>
<path d="M207.72 296.29L205.27 303.24H209.49L212.28 296.29H207.72Z" fill="white"/>
<path d="M212.28 296.29L209.49 303.24H223.69L220.9 296.29H212.28Z" fill="white"/>
<path d="M221.34 276.26H211.99L197.16 309.8H206.85L209.49 303.24H205.27L207.72 296.29H212.28L216.59 285.57L214.72 280.91H218.46L216.59 285.57L220.9 296.29H224.12L226.57 303.24H223.69L226.33 309.8H236.22L221.34 276.26Z" fill="white"/>
<path d="M224.12 296.29H220.9L223.69 303.24H226.57L224.12 296.29Z" fill="white"/>
<path d="M248.45 276.26H238.95V309.8H264.43V302.28H248.45V276.26Z" fill="white"/>
<path d="M277.57 296.29H276.9V289.25H277.57V283.64H294.51V276.26H268.22V309.8H295.13V302.42H277.57V296.29Z" fill="white"/>
<path d="M292.49 289.51H277.57V296.55H292.49V289.51Z" fill="white"/>
<path d="M277.57 289.25H276.9V296.29H277.57V289.25Z" fill="white"/>
<path d="M120.71 159.55C101.28 158.93 87.14 175.79 86.21 200.6L90.77 200.75C91.49 182 100.94 163.48 120.57 164.11C138.38 164.68 148.6 179.06 147.95 202.58L152.51 202.73C153.22 176.74 141.07 160.21 120.71 159.56V159.55Z" fill="#FBF9F9"/>
<path d="M153.23 203.5L147.17 203.31L147.19 202.56C147.5 191.18 145.21 181.71 140.56 175.17C135.95 168.69 129.03 165.13 120.53 164.86C111.76 164.57 104.37 168.29 99.1699 175.6C94.5999 182.02 91.8799 190.96 91.4999 200.78L91.4699 201.52L85.4099 201.33L85.4399 200.58C86.3899 175.35 100.9 158.17 120.72 158.81C141.51 159.48 153.97 176.31 153.24 202.75L153.22 203.5H153.23ZM148.7 201.86L151.77 201.96C151.99 189.7 149.27 179.39 143.9 172.09C138.46 164.69 130.43 160.62 120.68 160.31C116.03 160.16 111.61 161.03 107.56 162.9C103.61 164.73 100.08 167.46 97.0899 171.03C94.0799 174.61 91.6799 178.94 89.9599 183.89C88.2599 188.77 87.2599 194.15 86.9799 199.89L90.0399 199.99C90.9699 181.5 100.41 163.36 119.58 163.36C119.91 163.36 120.24 163.36 120.57 163.38C138.64 163.96 149.12 178.33 148.69 201.87L148.7 201.86Z" fill="#332A28"/>
<path d="M113.68 157.11C94.2501 156.49 80.1101 173.35 79.1801 198.16L83.7401 198.31C84.4601 179.56 93.9101 161.04 113.54 161.67C131.35 162.24 141.57 176.62 140.92 200.14L145.48 200.29C146.19 174.3 134.04 157.77 113.68 157.12V157.11Z" fill="#FBF9F9"/>
<path d="M146.21 201.06L140.15 200.87L140.17 200.12C140.48 188.74 138.19 179.27 133.54 172.73C128.93 166.26 122.01 162.69 113.51 162.42C104.73 162.14 97.35 165.85 92.15 173.16C87.58 179.58 84.86 188.52 84.48 198.34L84.45 199.08L78.39 198.89L78.42 198.14C79.37 172.91 93.88 155.74 113.7 156.37C134.49 157.04 146.95 173.87 146.22 200.31L146.2 201.06H146.21ZM141.68 199.42L144.75 199.52C144.97 187.26 142.25 176.95 136.88 169.65C131.44 162.25 123.41 158.18 113.66 157.87C109.01 157.72 104.59 158.59 100.54 160.46C96.59 162.29 93.06 165.02 90.07 168.59C87.06 172.17 84.66 176.5 82.94 181.45C81.24 186.33 80.24 191.71 79.96 197.45L83.02 197.55C83.97 178.74 93.71 160.3 113.55 160.94C131.62 161.52 142.1 175.89 141.67 199.43L141.68 199.42Z" fill="#332A28"/>
<path d="M167.71 198.98L151.5 343.02L180.12 343.94L179.66 199.36L167.71 198.98Z" fill="#FF7701"/>
<path d="M180.78 344.61L150.77 343.65L167.12 198.3L180.31 198.72L180.78 344.61ZM152.23 342.38L179.47 343.25L179.01 199.98L168.3 199.64L152.24 342.38H152.23Z" fill="#332A28"/>
<path d="M44.52 339.59L156.84 343.19L167.71 198.98L55.39 195.38L44.52 339.59Z" fill="#E4873A"/>
<path d="M157.53 343.96L43.71 340.31L43.77 339.53L54.69 194.6L168.51 198.25L168.45 199.03L157.52 343.96H157.53ZM45.32 338.86L156.14 342.41L166.9 199.69L56.08 196.14L45.32 338.86Z" fill="#332A28"/>
<path d="M67.7999 242.34L149.32 245.35L151.34 219.56L70.4799 216.21L67.7999 242.34Z" fill="#FBF9F9"/>
<path d="M69.81 215.43L66.97 243.06L150.01 246.13L152.14 218.84L70.51 215.46L69.81 215.43ZM150.53 220.27L148.63 244.57L68.63 241.61L71.16 216.98L150.53 220.27Z" fill="#332A28"/>
<path d="M77.9301 206.17C62.8801 205.69 51.9201 218.75 51.2001 237.97L54.7301 238.08C55.2801 223.55 62.6101 209.21 77.8101 209.69C91.6101 210.13 99.5201 221.27 99.0201 239.5L102.56 239.61C103.11 219.48 93.7001 206.67 77.9201 206.16L77.9301 206.17Z" fill="#E3EEF6"/>
<path d="M103.2 240.3L98.35 240.14L98.37 239.49C98.61 230.69 96.84 223.37 93.25 218.32C89.7 213.32 84.35 210.57 77.79 210.36C71.02 210.14 65.32 213.01 61.31 218.65C57.78 223.61 55.67 230.53 55.38 238.12L55.36 238.77L50.52 238.61L50.54 237.95C51.28 218.36 62.54 205.02 77.95 205.52C94.1 206.04 103.78 219.11 103.22 239.64L103.2 240.3ZM99.7 238.88L101.93 238.95C102.09 229.5 99.99 221.56 95.85 215.93C91.65 210.22 85.45 207.07 77.92 206.83C70.74 206.6 64.45 209.46 59.7 215.11C55.1 220.58 52.34 228.46 51.89 237.34L54.11 237.41C54.87 222.83 62.44 208.55 77.84 209.05C91.87 209.5 100.01 220.63 99.7 238.88Z" fill="#332A28"/>
<path d="M72.48 204.28C57.43 203.8 46.47 216.86 45.75 236.08L49.28 236.19C49.83 221.66 57.16 207.32 72.36 207.8C86.16 208.24 94.07 219.38 93.57 237.61L97.11 237.72C97.66 217.59 88.25 204.78 72.47 204.27L72.48 204.28Z" fill="#E3EEF6"/>
<path d="M97.76 238.4L92.91 238.24L92.93 237.59C93.17 228.79 91.4 221.47 87.81 216.42C84.26 211.42 78.91 208.67 72.35 208.46C65.58 208.24 59.88 211.11 55.87 216.75C52.34 221.71 50.23 228.63 49.94 236.22L49.92 236.87L45.08 236.71L45.1 236.05C45.84 216.46 57.11 203.12 72.51 203.62C88.66 204.14 98.34 217.21 97.78 237.74L97.76 238.4ZM94.26 236.98L96.49 237.05C96.65 227.6 94.55 219.66 90.41 214.03C86.21 208.32 80.01 205.17 72.48 204.93C65.31 204.7 59.01 207.56 54.26 213.21C49.66 218.68 46.9 226.56 46.45 235.44L48.67 235.51C49.43 220.93 57.01 206.65 72.4 207.15C86.43 207.6 94.57 218.73 94.26 236.98Z" fill="#332A28"/>
<path d="M114.34 236.72L101.79 348.31L123.96 349.02L123.6 237.01L114.34 236.72Z" fill="#FF7701"/>
<path d="M124.62 349.7L101.05 348.95L113.75 236.05L124.25 236.39L124.61 349.71L124.62 349.7ZM102.52 347.68L123.31 348.35L122.95 237.65L114.93 237.39L102.52 347.68Z" fill="#332A28"/>
<path d="M18.9 345.66L105.92 348.45L114.34 236.72L27.32 233.93L18.9 345.66Z" fill="#E99854"/>
<path d="M106.61 349.22L18.09 346.38L26.62 233.15L115.14 235.99L115.08 236.77L106.6 349.22H106.61ZM19.7 344.94L105.22 347.68L113.53 237.45L28.01 234.71L19.7 344.94Z" fill="#332A28"/>
<path d="M35.48 278.88L97.37 281.16L98.9 261.58L37.52 259.04L35.48 278.88Z" fill="#FBEEE3"/>
<path d="M36.93 258.36L34.76 279.51L97.35 281.82L97.98 281.84L99.61 260.95L37.55 258.38L36.93 258.35V258.36ZM98.19 262.21L96.76 280.49L36.2 278.25L38.1 259.72L98.18 262.21H98.19Z" fill="#332A28"/>
<path d="M208.71 22.47L193.79 5.82003C188.18 -0.449969 178.54 -0.979969 172.26 4.63003L92.0699 76.27C89.0699 78.95 87.2599 82.7 87.0199 86.71L85.1199 118.39C84.6099 126.83 91.0999 134.07 99.5599 134.5L131.3 136.13C135.32 136.34 139.25 134.95 142.25 132.27L222.44 60.63C228.71 55.02 229.25 45.4 223.64 39.14L208.72 22.49L208.71 22.47ZM106.49 122.41C103.84 124.77 99.7799 124.55 97.4099 121.91C95.0399 119.27 95.2699 115.21 97.9099 112.85C100.56 110.49 104.62 110.71 106.99 113.35C109.36 115.99 109.13 120.05 106.49 122.41Z" fill="#1F201F"/>
<path d="M132.1 136.88C131.82 136.88 131.54 136.88 131.26 136.86L99.5199 135.23C95.2199 135.01 91.2799 133.12 88.4099 129.92C85.5499 126.72 84.1199 122.6 84.3699 118.32L86.2699 86.64C86.5199 82.41 88.4099 78.52 91.5699 75.69L171.76 4.06002C178.33 -1.80998 188.46 -1.24998 194.34 5.31002L224.18 38.62C227.03 41.8 228.47 45.9 228.23 50.16C227.99 54.42 226.11 58.33 222.92 61.18L142.73 132.82C139.77 135.46 136.02 136.89 132.08 136.89L132.1 136.88ZM182.42 1.50002C178.98 1.50002 175.52 2.71002 172.76 5.18002L92.5699 76.82C89.6999 79.38 87.9999 82.91 87.7699 86.74L85.8699 118.42C85.6399 122.3 86.9399 126.03 89.5299 128.93C92.1299 131.83 95.6999 133.54 99.5999 133.74L131.34 135.37C135.19 135.56 138.88 134.26 141.75 131.7L221.94 60.06C224.83 57.48 226.53 53.94 226.75 50.08C226.96 46.22 225.66 42.51 223.08 39.63L193.24 6.32002C190.38 3.13002 186.41 1.50002 182.43 1.50002H182.42ZM102.2 124.79C100.23 124.79 98.2599 123.99 96.8499 122.41C95.5699 120.98 94.9299 119.15 95.0299 117.23C95.1399 115.32 95.9799 113.56 97.4099 112.29C100.36 109.66 104.9 109.91 107.54 112.85C108.82 114.28 109.46 116.12 109.36 118.03C109.25 119.94 108.41 121.7 106.98 122.97C105.61 124.19 103.9 124.79 102.2 124.79ZM102.2 111.96C100.85 111.96 99.4999 112.44 98.4199 113.4C97.2899 114.41 96.6199 115.8 96.5399 117.31C96.4599 118.82 96.9699 120.28 97.9799 121.4C100.07 123.73 103.66 123.93 106 121.84C107.13 120.83 107.8 119.44 107.88 117.93C107.96 116.42 107.45 114.96 106.44 113.84C105.32 112.59 103.77 111.95 102.21 111.95L102.2 111.96Z" fill="#332A28"/>
<path d="M189.18 11.89C184.79 7.25003 177.57 6.90003 172.75 11.1L96.69 77.36C94.4 79.36 92.97 82.13 92.68 85.15C92.01 92.06 90.83 105.56 89.97 115.66C89.7 118.83 90.68 121.91 92.74 124.34C94.8 126.77 97.69 128.25 100.87 128.49L131.77 130.89C132.07 130.91 132.38 130.93 132.68 130.93C135.62 130.93 138.49 129.83 140.68 127.84L216.78 58.65C219.16 56.49 220.53 53.54 220.65 50.33C220.77 47.12 219.62 44.08 217.42 41.74L189.18 11.89ZM218.89 50.27C218.79 53 217.62 55.51 215.6 57.35L139.5 126.54C137.45 128.41 134.68 129.36 131.91 129.14L101.01 126.74C98.3 126.53 95.84 125.27 94.08 123.2C92.33 121.13 91.49 118.51 91.72 115.81C92.59 105.71 93.76 92.22 94.43 85.32C94.68 82.74 95.89 80.39 97.85 78.69L173.91 12.42C178.02 8.84003 184.16 9.14003 187.9 13.1L216.14 42.95C218.02 44.93 218.99 47.53 218.89 50.26V50.27Z" fill="white"/>
<path d="M135.53 88.1C133.22 87.8 130.47 88.31 127.28 89.63C124.76 90.57 123.03 91.0701 122.11 91.1201C121.18 91.1801 120.4 90.65 119.75 89.56C119.35 88.89 119.26 88.08 119.5 87.13C119.73 86.18 120.2 85.3901 120.89 84.7601C121.87 83.8701 122.89 83.48 123.93 83.6C124.97 83.72 125.84 84.3501 126.54 85.5001L131.99 80.5801L131.95 80.4301C130.37 77.6801 128.25 76.28 125.6 76.24C122.95 76.2 120.36 77.3201 117.82 79.6201C115.38 81.8201 113.8 84.2801 113.07 86.9801C112.34 89.6901 112.7 92.26 114.15 94.68C115.55 97.03 117.48 98.28 119.94 98.43C122.4 98.58 125.4 97.92 128.93 96.46C130.93 95.81 132.37 95.5101 133.26 95.5501C134.15 95.5901 134.96 96.2 135.69 97.39C136.1 98.09 136.18 98.92 135.92 99.88C135.66 100.84 135.19 101.62 134.52 102.22C133.44 103.2 132.33 103.78 131.21 103.97C130.09 104.15 129.1 103.52 128.24 102.06L122.79 106.98L122.85 107.11C124.58 110.16 126.85 111.52 129.67 111.19C132.49 110.86 135.13 109.59 137.59 107.36C140.07 105.12 141.68 102.68 142.4 100.05C143.13 97.4201 142.74 94.8401 141.23 92.3001C139.73 89.8001 137.83 88.39 135.53 88.09V88.1Z" fill="white"/>
<path d="M134.97 64.74L144.94 100.07L150.56 94.99L148.46 88.27L155.2 82.18L159.81 86.63L165.44 81.54L140.97 59.32L134.97 64.74ZM143.04 70.42L150.97 78.09L146.53 82.1L142.93 70.49L143.05 70.42H143.04Z" fill="white"/>
<path d="M168.23 71.11L154.09 47.47L148.47 52.54L165.68 81.32L180.94 67.54L177.87 62.4L168.23 71.11Z" fill="white"/>
<path d="M184.37 56.52L180.07 49.35L188.81 41.45L185.73 36.31L177 44.21L173.31 38.01L183.65 28.67L180.58 23.53L164.62 37.95L181.83 66.73L197.76 52.34L194.68 47.2L184.37 56.52Z" fill="white"/>
<path d="M104.69 116.95C103.82 116.48 102.89 116.42 101.99 116.77C99.3299 117.82 97.7399 122.28 97.5599 122.78L99.2299 123.35C99.6299 122.19 101.01 119.05 102.63 118.41C103.01 118.26 103.37 118.27 103.75 118.45C103.89 118.75 104.35 120.33 103.59 127.43C103.04 132.5 102.02 138.93 100.71 145.51C97.6299 161.03 93.9899 172.71 91.2099 176C90.9099 176.35 90.3599 176.91 89.9899 176.75C88.2399 175.96 85.8199 171.99 89.3299 154.31C91.3799 143.97 94.5099 133.95 94.5399 133.85L92.8599 133.32C92.8299 133.42 89.6699 143.51 87.6099 153.95C84.7199 168.56 85.2599 176.54 89.2699 178.35C89.5799 178.49 89.8699 178.55 90.1599 178.55C92.2299 178.55 93.8099 175.35 94.3699 174.2C97.8099 167.21 101.21 152.78 103.24 141.6C104.36 135.42 105.18 129.65 105.55 125.35C106.15 118.33 105.41 117.32 104.67 116.93L104.69 116.95Z" fill="black"/>
<path d="M315.12 96.38C341.204 96.38 362.35 75.2613 362.35 49.21C362.35 23.1588 341.204 2.04004 315.12 2.04004C289.036 2.04004 267.89 23.1588 267.89 49.21C267.89 75.2613 289.036 96.38 315.12 96.38Z" fill="#E2761C"/>
<path d="M309.81 3.36005C296.81 3.36005 284.59 8.42005 275.39 17.6C266.2 26.78 261.13 38.99 261.13 51.97C261.13 64.95 266.19 77.16 275.39 86.34C284.58 95.52 296.81 100.58 309.81 100.58C322.81 100.58 335.03 95.52 344.23 86.34C353.42 77.16 358.49 64.95 358.49 51.97C358.49 38.99 353.43 26.78 344.23 17.6C335.04 8.42005 322.81 3.36005 309.81 3.36005ZM342.19 84.3C333.54 92.94 322.04 97.69 309.81 97.69C297.58 97.69 286.08 92.93 277.43 84.3C268.78 75.66 264.02 64.18 264.02 51.97C264.02 39.76 268.78 28.27 277.43 19.64C286.08 11 297.58 6.25005 309.81 6.25005C322.04 6.25005 333.54 11.01 342.19 19.64C350.84 28.28 355.6 39.76 355.6 51.97C355.6 64.18 350.84 75.67 342.19 84.3Z" fill="black"/>
<path d="M320.92 34.46L315.47 65.75H307.25L301.89 34.46C301.77 34.06 301.69 33.65 301.63 33.22C301.57 32.79 301.54 32.26 301.54 31.63C301.54 29.35 302.14 27.55 303.34 26.23C304.94 24.52 307.51 23.66 311.05 23.66C314.82 23.66 317.51 24.57 319.11 26.4C320.31 27.77 320.91 29.71 320.91 32.23V34.46H320.92ZM319.12 76.55C319.12 78.72 318.36 80.62 316.85 82.25C315.34 83.88 313.41 84.69 311.06 84.69C308.71 84.69 306.7 83.9 305.19 82.33C303.68 80.76 302.92 78.83 302.92 76.54C302.92 74.25 303.71 72.41 305.28 71.01C306.85 69.61 308.78 68.91 311.07 68.91C313.36 68.91 315.2 69.64 316.77 71.1C318.34 72.56 319.13 74.37 319.13 76.54L319.12 76.55Z" fill="black"/>
<path d="M241.91 43.62C241.91 44.78 240.97 45.71 239.82 45.71C238.67 45.71 237.73 44.77 237.73 43.62C237.73 42.47 238.67 41.53 239.82 41.53C240.97 41.53 241.91 42.47 241.91 43.62Z" fill="#E99854"/>
<path d="M253.78 20.8C253.78 21.96 252.84 22.89 251.69 22.89C250.54 22.89 249.6 21.95 249.6 20.8C249.6 19.65 250.54 18.71 251.69 18.71C252.84 18.71 253.78 19.65 253.78 20.8Z" fill="#E99854"/>
<path d="M354.36 101.65C356.547 101.65 358.32 99.8771 358.32 97.69C358.32 95.503 356.547 93.73 354.36 93.73C352.173 93.73 350.4 95.503 350.4 97.69C350.4 99.8771 352.173 101.65 354.36 101.65Z" fill="#E99854"/>
<path d="M393.75 193.36C393.75 194.52 392.81 195.45 391.66 195.45C390.51 195.45 389.57 194.51 389.57 193.36C389.57 192.21 390.51 191.27 391.66 191.27C392.81 191.27 393.75 192.21 393.75 193.36Z" fill="#E99854"/>
<path d="M391.65 258.71C391.65 259.87 390.71 260.8 389.56 260.8C388.41 260.8 387.47 259.86 387.47 258.71C387.47 257.56 388.41 256.62 389.56 256.62C390.71 256.62 391.65 257.56 391.65 258.71Z" fill="#E99854"/>
<path d="M72.96 144.41C72.96 145.57 72.02 146.5 70.87 146.5C69.72 146.5 68.78 145.56 68.78 144.41C68.78 143.26 69.72 142.32 70.87 142.32C72.02 142.32 72.96 143.26 72.96 144.41Z" fill="#E99854"/>
<path d="M36.5301 61.56C38.7171 61.56 40.4901 59.7871 40.4901 57.6C40.4901 55.413 38.7171 53.64 36.5301 53.64C34.343 53.64 32.5701 55.413 32.5701 57.6C32.5701 59.7871 34.343 61.56 36.5301 61.56Z" fill="#E99854"/>
<path d="M114.7 35.24C114.7 36.4 113.76 37.33 112.61 37.33C111.46 37.33 110.52 36.39 110.52 35.24C110.52 34.09 111.46 33.15 112.61 33.15C113.76 33.15 114.7 34.09 114.7 35.24Z" fill="#E99854"/>
<path d="M4.19001 160.76C4.19001 161.92 3.25001 162.85 2.10001 162.85C0.95001 162.85 0.0100098 161.91 0.0100098 160.76C0.0100098 159.61 0.95001 158.67 2.10001 158.67C3.25001 158.67 4.19001 159.61 4.19001 160.76Z" fill="#E99854"/>
<path d="M4.19001 272.3C4.19001 273.46 3.25001 274.39 2.10001 274.39C0.95001 274.39 0.0100098 273.45 0.0100098 272.3C0.0100098 271.15 0.95001 270.21 2.10001 270.21C3.25001 270.21 4.19001 271.15 4.19001 272.3Z" fill="#E99854"/>
<path d="M356.48 301.11V294.71H352.23V301.11H345.83V305.37H352.23V311.77H356.48V305.37H362.89V301.11H356.48Z" fill="#E08948"/>
<path d="M351.94 203.04V198.37H348.84V203.04H344.18V206.13H348.84V210.8H351.94V206.13H356.6V203.04H351.94Z" fill="#E08948"/>
<path d="M37.03 205.98V201.32H33.93V205.98H29.27V209.08H33.93V213.74H37.03V209.08H41.7V205.98H37.03Z" fill="#E08948"/>
<path d="M45.8401 102.52V96.12H41.5801V102.52H35.1801V106.78H41.5801V113.18H45.8401V106.78H52.2401V102.52H45.8401Z" fill="#E08948"/>
</g>
<defs>
<clipPath id="clip0_214_411">
<rect width="393.75" height="349.7" fill="white"/>
</clipPath>
</defs>
</svg>
