<svg xmlns="http://www.w3.org/2000/svg" width="22.105" height="24" viewBox="0 0 22.105 24">
  <path id="icons8_purchase_order" d="M7.895,3.158A2.857,2.857,0,0,0,5.053,6V20.842H4.105a.947.947,0,0,0-.947.947v1.263a4.12,4.12,0,0,0,4.105,4.105H21.158a4.12,4.12,0,0,0,4.105-4.105V6a2.857,2.857,0,0,0-2.842-2.842Zm0,1.895H22.421A.933.933,0,0,1,23.368,6V23.053a2.211,2.211,0,1,1-4.421,0V21.789A.947.947,0,0,0,18,20.842H6.947V6A.933.933,0,0,1,7.895,5.053Zm2.526,3.158a.947.947,0,1,0,.947.947A.947.947,0,0,0,10.421,8.211Zm3.158,0a.947.947,0,1,0,0,1.895h6.316a.947.947,0,1,0,0-1.895ZM10.421,12a.947.947,0,1,0,.947.947A.947.947,0,0,0,10.421,12Zm3.158,0a.947.947,0,1,0,0,1.895h6.316a.947.947,0,1,0,0-1.895Zm-3.158,3.789a.947.947,0,1,0,.947.947A.947.947,0,0,0,10.421,15.789Zm3.158,0a.947.947,0,1,0,0,1.895h6.316a.947.947,0,1,0,0-1.895ZM5.053,22.737h12v.316a3.984,3.984,0,0,0,.741,2.211H7.263a2.2,2.2,0,0,1-2.211-2.211Z" transform="translate(-3.158 -3.158)" fill="#5b5b5b"/>
</svg>
